# AST/ASF file generated using VICON BodyLanguage
# -----------------------------------------------
:version 1.10
:name VICON
:units
  mass 1.0
  length 0.45
  angle deg
:documentation
   .ast/.asf automatically generated from VICON data using
   VICON BodyBuilder and BodyLanguage model FoxedUp or BRILLIANT.MOD
:root
   order TX TY TZ RX RY RZ
   axis XYZ
   position 0 0 0  
   orientation 0 0 0 
:bonedata
  begin
     id 1 
     name lhipjoint
     direction 0.578396 -0.714046 0.394458 
     length 2.21935 
     axis 0 0 0  XYZ
  end
  begin
     id 2 
     name lfemur
     direction 0.34202 -0.939693 0  
     length 6.39105  
     axis 0 0 20  XYZ
    dof rx ry rz
    limits (-160.0 20.0)
           (-70.0 70.0)
           (-60.0 70.0)
  end
  begin
     id 3 
     name ltibia
     direction 0.34202 -0.939693 0   
     length 6.99037   
     axis 0 0 20   XYZ
    dof rx
    limits (-10.0 170.0)
  end
  begin
     id 4 
     name lfoot
     direction 0.0582372 -0.160005 0.985397   
     length 2.06111   
     axis -90 7.62852e-016 20   XYZ
    dof rx rz
    limits (-45.0 90.0)
           (-70.0 20.0)
  end
  begin
     id 5 
     name ltoes
     direction 1.53556e-011 -4.21875e-011 1   
     length 1.04074   
     axis -90 7.62852e-016 20   XYZ
    dof rx
    limits (-90.0 20.0)
  end
  begin
     id 6 
     name rhipjoint
     direction -0.558179 -0.726269 0.40121   
     length 2.182  
     axis 0 0 0  XYZ 
  end
  begin
     id 7 
     name rfemur
     direction -0.34202 -0.939693 0   
     length 6.51172   
     axis 0 0 -20   XYZ
    dof rx ry rz
    limits (-160.0 20.0)
           (-70.0 70.0)
           (-70.0 60.0)
  end
  begin
     id 8 
     name rtibia
     direction -0.34202 -0.939693 0   
     length 7.02607   
     axis 0 0 -20   XYZ
    dof rx
    limits (-10.0 170.0)
 end
 begin
     id 9 
     name rfoot
     direction -0.0788856 -0.216737 0.973038   
     length 1.96734  
     axis -90 -7.62852e-016 -20   XYZ
    dof rx rz
    limits (-45.0 90.0)
           (-20.0 70.0)
  end
  begin
     id 10 
     name rtoes
     direction -1.53567e-011 -4.21783e-011 1   
     length 0.990825   
     axis -90 -7.62852e-016 -20   XYZ
    dof rx
    limits (-90.0 20.0)
  end
  begin
     id 11 
     name lowerback
     direction 0.00668177 0.999323 -0.0361741   
     length 1.7655   
     axis 0 0 0   XYZ
    dof rx ry rz
    limits (-20.0 45.0)
           (-30.0 30.0)
           (-30.0 30.0)
  end
  begin
     id 12 
     name upperback
     direction -0.00222086 0.99851 0.0545167   
     length 1.74912   
     axis 0 0 0   XYZ
    dof rx ry rz
    limits (-20.0 45.0)
           (-30.0 30.0)
           (-30.0 30.0)
  end
  begin
     id 13 
     name thorax
     direction -0.00733971 0.997496 0.0703443   
     length 1.75715   
     axis 0 0 0   XYZ
    dof rx ry rz
    limits (-20.0 45.0)
           (-30.0 30.0)
           (-30.0 30.0)
  end
  begin
     id 14 
     name lowerneck
     direction 0.0279797 0.994795 0.0979765   
     length 1.46939   
     axis 0 0 0   XYZ
    dof rx ry rz
    limits (-20.0 45.0)
           (-30.0 30.0)
           (-30.0 30.0)
  end
  begin
     id 15 
     name upperneck
     direction 0.00339187 0.976776 -0.214238   
     length 1.48018   
     axis 0 0 0   XYZ
    dof rx ry rz
    limits (-20.0 45.0)
           (-30.0 30.0)
           (-30.0 30.0)
  end
  begin
     id 16
     name head
     direction -0.00263506 0.996603 -0.0823096  
     length 1.4976  
     axis 0 0 0   XYZ
    dof rx ry rz
    limits (-20.0 45.0)
           (-30.0 30.0)
           (-30.0 30.0)
  end
  begin
     id 17 
     name lclavicle
     direction 0.894044 0.44508 -0.0508781  
     length 3.03024  
     axis 0 0 0   XYZ
    dof ry rz
    limits (-20.0 10.0)
           (0.0 20.0)
  end
  begin
     id 18 
     name lhumerus
     direction 1 -4.48961e-011 -2.39475e-018   
     length 4.4661   
     axis 180 -30 -90   XYZ
    dof rx ry rz
    limits (-60.0 90.0)
           (-90.0 90.0)
           (-90.0 90.0)
  end
  begin
     id 19
     name lradius
     direction 1 -4.48961e-011 9.29328e-028   
     length 3.41414   
     axis 180 -30 -90   XYZ
    dof rx
    limits (-10.0 170.0)
  end
  begin
     id 20
     name lwrist
     direction 1 -4.48985e-011 1.53461e-026   
     length 1.70707   
     axis -1.09697e-014 90 90   XYZ
    dof ry
    limits (-180.0 0.0)
 end
  begin
     id 21 
     name lhand
     direction 1 -4.48966e-011 3.06923e-026   
     length 0.328298   
     axis -1.95843e-014 90 90   XYZ
    dof rx rz
    limits (-90.0 90.0)
           (-45.0 45.0)
  end
  begin
     id 22 
     name lfingers
     direction 1 -4.48893e-011 6.13845e-026   
     length 0.264682   
     axis -3.91686e-014 90 90   XYZ
    dof rx
    limits (0.0 90.0)
  end
  begin
     id 23
     name lthumb
     direction 0.707107 -6.34876e-011 0.707107   
     length 0.380032   
     axis -90 45 2.85299e-015   XYZ
    dof rx rz
    limits (-45.0 45.0)
           (-45.0 45.0)
  end
  begin
     id 24 
     name rclavicle
     direction -0.936955 0.347862 -0.0332887   
     length 3.26927  
     axis 0 0 0   XYZ 
    dof ry rz
    limits (-10.0 20.0)
           (-20.0 0.0)
  end
  begin
     id 25 
     name rhumerus
     direction -1 -4.4896e-011 1.78637e-018  
     length 4.40431   
     axis 180 30 90   XYZ
    dof rx ry rz
    limits (-90.0 60.0)
           (-90.0 90.0)
           (-90.0 90.0)
  end
  begin
     id 26 
     name rradius
     direction -1 -4.48955e-011 9.34036e-027   
     length 3.04688   
     axis 180 30 90   XYZ
    dof rx
    limits (-10.0 170.0)
  end
  begin
     id 27 
     name rwrist
     direction -1 -4.49011e-011 1.53461e-026   
     length 1.52344   
     axis -1.09697e-014 -90 -90   XYZ
    dof ry
    limits (-180.0 0.0)
  end
  begin
     id 28
     name rhand
     direction -1 -4.48834e-011 3.06923e-026   
     length 0.500489   
     axis -1.95843e-014 -90 -90   XYZ
    dof rx rz
    limits (-90.0 90.0)
           (-45.0 45.0)
  end
  begin
     id 29
     name rfingers
     direction -1 -4.48967e-011 6.13845e-026   
     length 0.403507   
     axis -3.91686e-014 -90 -90   XYZ
    dof rx
    limits (0.0 90.0)
  end
  begin
     id 30
     name rthumb
     direction -0.707107 -6.34826e-011 0.707107   
     length 0.579358   
     axis -90 -45 -2.85299e-015   XYZ
    dof rx rz
    limits (-45.0 45.0)
           (-45.0 45.0)
  end
:hierarchy
  begin
    root lhipjoint rhipjoint lowerback
    lhipjoint lfemur
    lfemur ltibia
    ltibia lfoot
    lfoot ltoes
    rhipjoint rfemur
    rfemur rtibia
    rtibia rfoot
    rfoot rtoes
    lowerback upperback
    upperback thorax
    thorax lowerneck lclavicle rclavicle
    lowerneck upperneck
    upperneck head
    lclavicle lhumerus
    lhumerus lradius
    lradius lwrist
    lwrist lhand lthumb
    lhand lfingers
    rclavicle rhumerus
    rhumerus rradius
    rradius rwrist
    rwrist rhand rthumb
    rhand rfingers
  end

#!OML:ASF H:\IndianDance\Patient Classification 1\Patient 1\Session 1\dancer.ASF
:FULLY-SPECIFIED
:DEGREES
688
root -5.81445 14.3533 8.53661 -357.895 -56.2079 -2.67822
lowerback 9.65559 8.3367 8.36934
upperback -3.9246 12.5871 4.39128
thorax -8.82526 5.71736 -1.92992
lowerneck -17.6501 -4.28315 -5.13513
upperneck 24.4068 -5.44968 2.8543
head 11.0406 -2.6486 1.08522
rclavicle -1.03964e-013 3.18055e-015
rhumerus 23.6667 15.3296 -69.7008
rradius 40.3881
rwrist -1.54394
rhand -60.4632 54.8664
rfingers 7.12502
rthumb -32.5927 27.7811
lclavicle -1.03964e-013 3.18055e-015
lhumerus 17.0975 13.6294 -1.12647
lradius 28.8592
lwrist 11.2018
lhand 33.3779 29.9099
lfingers 7.12502
lthumb 56.7155 406.73
rfemur -35.0968 -29.009 13.4608
rtibia 75.5016
rfoot -16.4855 -10.2923
rtoes 4.51097
lfemur -31.0681 0.157362 -27.8061
ltibia 53.369
lfoot -18.0536 -0.718143
ltoes 16.4267
689
root -5.77458 14.3643 8.5431 -357.539 -55.5044 -2.92192
lowerback 9.43556 8.32962 8.38479
upperback -3.97026 12.5614 4.45344
thorax -8.76213 5.71032 -1.83801
lowerneck -17.6916 -4.30494 -5.04765
upperneck 24.4467 -5.44484 2.64084
head 11.0539 -2.66362 0.993291
rclavicle -1.17879e-013 1.59028e-014
rhumerus 23.5794 15.2117 -69.7551
rradius 40.6532
rwrist -1.85471
rhand -58.0776 59.0358
rfingers 7.12502
rthumb -30.3199 31.507
lclavicle -1.17879e-013 1.59028e-014
lhumerus 16.9862 13.1316 -1.31824
lradius 29.0236
lwrist 11.5282
lhand 33.3043 29.9477
lfingers 7.12502
lthumb 56.6506 406.821
rfemur -35.2563 -29.567 13.9245
rtibia 77.3284
rfoot -15.6099 -9.75046
rtoes 3.90378
lfemur -31.1843 -0.157497 -27.7929
ltibia 52.9449
lfoot -17.6038 -1.32203
ltoes 16.9041
690
root -5.73888 14.3782 8.54801 -357.256 -54.8075 -3.11801
lowerback 9.69299 8.23746 8.57167
upperback -4.28594 12.519 4.29597
thorax -9.19107 5.64015 -2.15735
lowerneck -17.6366 -4.29843 -4.90575
upperneck 24.6929 -5.49907 2.66083
head 11.1335 -2.67397 0.968886
rclavicle 5.42682e-014 -1.59028e-015
rhumerus 23.0983 15.6495 -70.069
rradius 41.0441
rwrist -1.43575
rhand -58.064 59.2876
rfingers 7.12502
rthumb -30.3069 31.7564
lclavicle 5.42682e-014 -1.59028e-015
lhumerus 16.8449 12.2843 -1.96223
lradius 29.3061
lwrist 11.9944
lhand 33.5716 29.9151
lfingers 7.12502
lthumb 56.8861 406.596
rfemur -35.3021 -30.1244 14.3602
rtibia 79.0672
rfoot -14.079 -8.81513
rtoes 6.64602
lfemur -31.2252 -0.437301 -27.7771
ltibia 52.5042
lfoot -17.2123 -1.98957
ltoes 17.6831
691
root -5.7059 14.395 8.54974 -357.139 -54.0959 -3.14471
lowerback 9.45135 8.21954 8.38062
upperback -4.28056 12.4453 4.34978
thorax -9.1011 5.62653 -1.95689
lowerneck -17.6809 -4.30273 -4.81431
upperneck 24.7158 -5.47579 2.47147
head 11.1407 -2.67716 0.887689
rclavicle 8.38871e-014 -9.54166e-015
rhumerus 23.0563 15.885 -69.925
rradius 41.3694
rwrist -1.45177
rhand -57.5834 61.8387
rfingers 7.12502
rthumb -29.8484 34.2241
lclavicle 8.38871e-014 -9.54166e-015
lhumerus 16.6125 11.8449 -2.18995
lradius 29.6081
lwrist 12.4935
lhand 33.5471 30.0452
lfingers 7.12502
lthumb 56.8645 406.743
rfemur -35.3227 -30.7292 14.6888
rtibia 80.7961
rfoot -12.6915 -8.00916
rtoes 7.44362
lfemur -31.2348 -0.696848 -27.851
ltibia 52.1137
lfoot -16.849 -2.70155
ltoes 18.5002
692
root -5.67362 14.4107 8.55178 -357.061 -53.4017 -3.14854
lowerback 9.20591 8.18957 8.17942
upperback -4.24097 12.3519 4.41516
thorax -8.97645 5.60675 -1.73375
lowerneck -17.7439 -4.2854 -4.71452
upperneck 24.6996 -5.41942 2.27584
head 11.1352 -2.665 0.807729
rclavicle 1.22253e-013 3.65764e-014
rhumerus 22.9926 16.379 -69.7885
rradius 41.8165
rwrist -0.698957
rhand -58.0614 61.2577
rfingers 7.12502
rthumb -30.3045 33.726
lclavicle 1.22253e-013 3.65764e-014
lhumerus 16.6495 12.0664 -2.03714
lradius 29.4863
lwrist 12.3012
lhand 33.7916 30.0264
lfingers 7.12502
lthumb 57.0797 406.546
rfemur -35.2045 -31.3689 15.0279
rtibia 82.4268
rfoot -11.2957 -7.15316
rtoes 6.20415
lfemur -31.2295 -0.910629 -27.9459
ltibia 51.7529
lfoot -16.5094 -3.38583
ltoes 19.1306
693
root -5.64247 14.4277 8.5531 -357.097 -52.6797 -3.06408
lowerback 8.98175 8.13545 7.92742
upperback -4.20457 12.2223 4.44829
thorax -8.87178 5.57014 -1.5178
lowerneck -17.7637 -4.2441 -4.51188
upperneck 24.6792 -5.3629 2.08028
head 11.1163 -2.64382 0.711721
rclavicle -4.83047e-014 -3.18055e-015
rhumerus 23.0349 17.0083 -69.5192
rradius 42.2271
rwrist -0.129907
rhand -58.53 60.3286
rfingers 7.12502
rthumb -30.7513 32.88
lclavicle -4.83047e-014 -3.18055e-015
lhumerus 16.4298 11.9756 -2.16255
lradius 29.6969
lwrist 12.54
lhand 33.9606 30.7021
lfingers 7.12502
lthumb 57.2281 407.096
rfemur -34.9647 -31.992 15.2326
rtibia 83.8868
rfoot -9.81551 -5.87431
rtoes 5.45872
lfemur -31.1346 -1.16829 -28.088
ltibia 51.3418
lfoot -16.1836 -4.22802
ltoes 19.9288
694
root -5.60959 14.4228 8.55262 -357.093 -52.0136 -3.07449
lowerback 8.85374 8.15724 7.81818
upperback -4.18628 12.223 4.45319
thorax -8.79979 5.58353 -1.43608
lowerneck -17.7058 -4.28954 -4.41108
upperneck 24.6264 -5.42628 1.97073
head 11.0808 -2.67673 0.647375
rclavicle 1.27819e-013 2.38542e-014
rhumerus 22.8367 17.2641 -69.4606
rradius 42.6647
rwrist 0.594784
rhand -58.893 60.1101
rfingers 7.12502
rthumb -31.0974 32.7272
lclavicle 1.27819e-013 2.38542e-014
lhumerus 16.6369 12.0868 -1.9738
lradius 29.672
lwrist 12.4185
lhand 34.0512 30.7914
lfingers 7.12502
lthumb 57.3076 407.118
rfemur -34.7262 -32.4921 15.4895
rtibia 85.2861
rfoot -8.26895 -4.31704
rtoes 4.56861
lfemur -31.0975 -1.33196 -28.1868
ltibia 50.9942
lfoot -15.7685 -4.78372
ltoes 20.3296
695
root -5.57591 14.445 8.55773 -357.117 -51.4232 -3.0958
lowerback 8.74873 8.15189 7.78153
upperback -4.15453 12.195 4.43009
thorax -8.70696 5.57863 -1.41841
lowerneck -17.591 -4.2714 -4.15765
upperneck 24.5176 -5.42905 1.80145
head 11.004 -2.67612 0.547182
rclavicle 3.61788e-014 6.52014e-014
rhumerus 22.7418 17.6483 -69.417
rradius 42.9813
rwrist 1.29206
rhand -59.1816 59.8678
rfingers 7.12502
rthumb -31.3724 32.538
lclavicle 3.61788e-014 6.52014e-014
lhumerus 16.6954 12.1382 -1.97757
lradius 29.6956
lwrist 12.4121
lhand 34.2483 30.7578
lfingers 7.12502
lthumb 57.4804 406.936
rfemur -34.2733 -32.8511 15.7273
rtibia 86.3095
rfoot -6.5826 -2.45845
rtoes 3.15441
lfemur -30.8852 -1.43484 -28.2767
ltibia 50.5185
lfoot -15.3634 -5.4696
ltoes 20.9782
696
root -5.53894 14.4678 8.56041 -357.061 -50.8281 -3.20088
lowerback 8.69653 8.12759 7.81257
upperback -4.13861 12.1587 4.42573
thorax -8.65402 5.56297 -1.42433
lowerneck -17.5267 -4.24368 -3.97833
upperneck 24.457 -5.40072 1.65261
head 10.9573 -2.66521 0.470096
rclavicle 9.99887e-014 2.70347e-014
rhumerus 22.6059 18.1127 -69.3824
rradius 43.297
rwrist 2.2308
rhand -59.7562 60.3582
rfingers 7.12502
rthumb -31.9197 33.1361
lclavicle 9.99887e-014 2.70347e-014
lhumerus 16.4123 11.822 -2.21155
lradius 30.1431
lwrist 12.8278
lhand 34.2815 30.9455
lfingers 7.12502
lthumb 57.5095 407.099
rfemur -33.8327 -33.1335 16.0704
rtibia 87.1294
rfoot -4.78553 -0.399374
rtoes 1.60872
lfemur -30.6972 -1.47212 -28.3201
ltibia 50.0296
lfoot -14.9204 -6.14458
ltoes 21.2977
697
root -5.49983 14.4904 8.56253 -357.007 -50.1849 -3.27307
lowerback 8.75483 8.07975 8.01715
upperback -4.18732 12.1218 4.30025
thorax -8.67447 5.52693 -1.66456
lowerneck -17.4941 -4.2382 -3.88718
upperneck 24.4474 -5.43051 1.69201
head 10.9464 -2.66514 0.465687
rclavicle 1.88845e-014 -2.8625e-014
rhumerus 22.3739 18.3518 -69.6996
rradius 43.5533
rwrist 3.22365
rhand -60.3141 59.9318
rfingers 7.12502
rthumb -32.4508 32.8173
lclavicle 1.88845e-014 -2.8625e-014
lhumerus 16.435 11.6945 -2.40555
lradius 30.2509
lwrist 12.9705
lhand 34.3045 30.8406
lfingers 7.12502
lthumb 57.5297 406.977
rfemur -33.3919 -33.4686 16.4394
rtibia 87.7163
rfoot -3.00221 1.92713
rtoes -0.0889842
lfemur -30.5134 -1.54502 -28.3795
ltibia 49.4468
lfoot -14.3783 -6.90528
ltoes 21.8777
698
root -5.45626 14.5116 8.56516 -356.936 -49.5912 -3.31742
lowerback 8.4546 8.10039 7.76441
upperback -4.051 12.0877 4.53189
thorax -8.45528 5.54908 -1.23693
lowerneck -17.3983 -4.2309 -3.93152
upperneck 24.2811 -5.3371 1.45511
head 10.8575 -2.65634 0.405304
rclavicle 1.34776e-013 5.08889e-014
rhumerus 22.5428 19.1564 -68.9211
rradius 43.934
rwrist 3.61294
rhand -60.9409 59.3718
rfingers 7.12502
rthumb -33.0471 32.3815
lclavicle 1.34776e-013 5.08889e-014
lhumerus 16.3948 12.1429 -1.85876
lradius 30.0045
lwrist 12.5566
lhand 34.3756 30.6066
lfingers 7.12502
lthumb 57.5919 406.689
rfemur -33.0367 -33.714 16.8486
rtibia 88.117
rfoot -1.25534 4.4172
rtoes -0.649026
lfemur -30.3736 -1.57069 -28.4784
ltibia 48.8522
lfoot -13.8037 -7.63872
ltoes 22.5351
699
root -5.41473 14.538 8.56644 -356.838 -48.9992 -3.45167
lowerback 8.36675 8.11054 7.76669
upperback -4.02064 12.0942 4.6132
thorax -8.38915 5.55929 -1.1392
lowerneck -17.2222 -4.29386 -3.86929
upperneck 24.1586 -5.388 1.23834
head 10.771 -2.70194 0.314881
rclavicle 2.09519e-013 2.06736e-014
rhumerus 22.4576 19.3601 -68.8804
rradius 44.2032
rwrist 4.14072
rhand -60.7557 58.7572
rfingers 7.12502
rthumb -32.8709 31.7298
lclavicle 2.09519e-013 2.06736e-014
lhumerus 16.234 11.9064 -1.88516
lradius 30.1692
lwrist 12.8621
lhand 34.2728 30.7202
lfingers 7.12502
lthumb 57.5019 406.88
rfemur -32.5995 -33.8421 17.3828
rtibia 88.2155
rfoot 0.556031 6.85222
rtoes -0.551258
lfemur -30.1819 -1.52506 -28.5
ltibia 48.2458
lfoot -13.173 -8.4343
ltoes 23.3261
700
root -5.37191 14.565 8.56795 -356.738 -48.4182 -3.55141
lowerback 8.43233 8.14912 7.85954
upperback -4.07616 12.1712 4.62076
thorax -8.46786 5.58612 -1.20241
lowerneck -17.1736 -4.35826 -4.05384
upperneck 24.1515 -5.45102 1.33116
head 10.77 -2.73599 0.370493
rclavicle 2.27807e-013 4.13472e-014
rhumerus 22.2075 19.6601 -68.7756
rradius 44.5374
rwrist 4.5726
rhand -60.8469 58.641
rfingers 7.12502
rthumb -32.9577 31.6319
lclavicle 2.27807e-013 4.13472e-014
lhumerus 16.2955 11.4131 -2.06657
lradius 30.2445
lwrist 13.4053
lhand 34.2523 30.9919
lfingers 7.12502
lthumb 57.4839 407.168
rfemur -32.1633 -33.8936 17.908
rtibia 88.1389
rfoot 2.25536 9.25283
rtoes -1.02229
lfemur -29.9941 -1.44452 -28.5512
ltibia 47.5801
lfoot -12.5594 -9.2807
ltoes 23.7095
701
root -5.33918 14.5977 8.56194 -356.325 -47.9431 -4.2101
lowerback 8.41072 8.21568 8.04812
upperback -4.04003 12.2898 4.83499
thorax -8.42247 5.64137 -1.08536
lowerneck -17.1261 -4.37355 -4.04497
upperneck 24.1103 -5.444 1.22052
head 10.7418 -2.74532 0.332069
rclavicle 5.06901e-014 3.02153e-014
rhumerus 22.3139 20.1957 -68.029
rradius 44.8953
rwrist 4.3601
rhand -60.9025 58.9762
rfingers 7.12502
rthumb -33.0106 31.9782
lclavicle 5.06901e-014 3.02153e-014
lhumerus 16.4905 10.9697 -2.24833
lradius 29.9563
lwrist 14.0222
lhand 34.1382 31.0381
lfingers 7.12502
lthumb 57.3839 407.3
rfemur -31.5739 -33.519 19.0016
rtibia 87.7471
rfoot 3.68081 11.2178
rtoes -1.91357
lfemur -29.7251 -1.10533 -28.1408
ltibia 46.8767
lfoot -11.8111 -10.1927
ltoes 24.1285
702
root -5.28023 14.6199 8.56957 -356.654 -47.2025 -3.48649
lowerback 8.21844 8.17773 7.79942
upperback -4.06586 12.1795 4.65092
thorax -8.35106 5.60342 -1.10736
lowerneck -17.1598 -4.39897 -4.00878
upperneck 24.1665 -5.45495 1.09522
head 10.7643 -2.7615 0.27846
rclavicle -1.51275e-013 -3.65764e-014
rhumerus 22.2695 20.4348 -67.9238
rradius 45.147
rwrist 4.64722
rhand -60.72 59.8069
rfingers 7.12502
rthumb -32.837 32.7724
lclavicle -1.51275e-013 -3.65764e-014
lhumerus 16.4793 10.9392 -2.22431
lradius 29.9015
lwrist 14.1489
lhand 33.9167 31.062
lfingers 7.12502
lthumb 57.1895 407.489
rfemur -31.402 -33.8011 18.9295
rtibia 87.3489
rfoot 5.3527 13.5643
rtoes -1.56419
lfemur -29.6527 -1.18512 -28.885
ltibia 46.0711
lfoot -11.093 -10.9405
ltoes 23.5274
